# xmcd CD database file
#
# Track frame offsets:
#	150
#	7380
#	19810
#	38402
#	55817
#	76347
#	94217
#	115935
#	136397
#	158782
#	177030
#	198895
#	222445
#	236187
#	241920
#
# Disc length: 3491 seconds
#
# Revision: 0
# Processed by: cddbd v1.5.1PL2 Copyright (c) Steve Scherf et al.
# Submitted via: CDex 1.51
#
DISCID=c50da10f
DTITLE=Lead - LEAD！HEAT！BEAT！
DYEAR=2005
DGENRE=JPop
TTITLE0=Rock the House！！〜roll start〜
TTITLE1=ベイビーランニンワイルド
TTITLE2=Jump around
TTITLE3=Love Magic
TTITLE4=Delighted
TTITLE5=Higher Revolution
TTITLE6=I believe
TTITLE7=プリズム
TTITLE8=Dear
TTITLE9=High Time
TTITLE10=BEST OF MY LOVER
TTITLE11=あたらしい季節へ
TTITLE12=手のひらを太陽に
TTITLE13=Rock the House！！〜roll end〜
TTITLE14=ベイビーランニンワイルド＜Funny Honey Bunny Style＞
EXTD=YEAR: 2005
EXTT0=
EXTT1=
EXTT2=
EXTT3=
EXTT4=
EXTT5=
EXTT6=
EXTT7=
EXTT8=
EXTT9=
EXTT10=
EXTT11=
EXTT12=
EXTT13=
EXTT14=
PLAYORDER=
